<?xml version="1.0" standalone="no"?><!DOCTYPE svg PUBLIC "-//W3C//DTD SVG 1.1//EN" "http://www.w3.org/Graphics/SVG/1.1/DTD/svg11.dtd"><svg t="1562495172199" class="icon" viewBox="0 0 1024 1024" version="1.1" xmlns="http://www.w3.org/2000/svg" p-id="1536" width="64" height="64" xmlns:xlink="http://www.w3.org/1999/xlink"><defs><style type="text/css"></style></defs><path d="M102.0928 66.9952c-19.1488 0-35.0976 15.9488-35.0976 35.072V373.248c0 19.1488 15.9488 35.0976 35.072 35.0976H373.248c19.1488 0 35.0976-15.9488 35.0976-35.072V102.0672c0-19.1488-15.9488-35.0976-35.072-35.0976H102.0672z m0-66.9952h271.1296c57.4208 0 102.0928 44.672 102.0928 102.0928v271.1296c0 57.4208-44.672 102.0928-102.0928 102.0928H102.0928C44.672 475.3152 0 430.6432 0 373.2224V102.0928C0 44.672 44.672 0 102.0928 0z m0 612.48c-19.1488 0-35.0976 15.9488-35.0976 35.0976v271.1552c0 19.1488 15.9488 35.072 35.072 35.072H373.248c19.1488 0 35.0976-15.9232 35.0976-35.072V647.5776c0-19.1488-15.9488-35.072-35.072-35.072H102.0672z m0-66.9952h271.1296c57.4208 0 102.0928 44.672 102.0928 102.0928v271.1552c0 57.4208-44.672 102.0672-102.0928 102.0672H102.0928C44.672 1020.8 0 976.1536 0 918.7328V647.5776c0-57.4208 44.672-102.0928 102.0928-102.0928zM647.5776 66.9952c-19.1488 0-35.072 15.9488-35.072 35.072V373.248c0 19.1488 15.9232 35.0976 35.072 35.0976h271.1552c19.1488 0 35.072-15.9488 35.072-35.072V102.0672c0-19.1488-15.9232-35.0976-35.072-35.0976H647.5776z m0-66.9952h271.1552c57.4208 0 102.0672 44.672 102.0672 102.0928v271.1296c0 57.4208-44.6464 102.0928-102.0672 102.0928H647.5776c-57.4208 0-102.0928-44.672-102.0928-102.0928V102.0928C545.4848 44.672 590.1568 0 647.5776 0z m-102.0928 647.5776c0-19.1488 15.9488-35.072 35.0976-35.072s35.072 15.9232 35.072 35.072v341.3248c0 19.1488-15.9232 35.0976-35.072 35.0976-19.1488 0-35.072-15.9488-35.072-35.072V647.552z m204.16 133.9904c0-19.1488 15.9744-35.0976 35.0976-35.0976 19.1488 0 35.072 15.9488 35.072 35.072v204.1856c0 19.1232-15.9232 35.072-35.072 35.072-19.1232 0-35.072-15.9488-35.072-35.072V781.568z m204.1856-169.088c0-19.1232 15.9488-35.072 35.072-35.072 19.1488 0 35.0976 15.9488 35.0976 35.072v373.248c0 19.1232-15.9488 35.072-35.072 35.072-19.1488 0-35.0976-15.9488-35.0976-35.072v-373.248z" fill="#1B7AFF" p-id="1537"></path></svg>