<?xml version="1.0" standalone="no"?><!DOCTYPE svg PUBLIC "-//W3C//DTD SVG 1.1//EN" "http://www.w3.org/Graphics/SVG/1.1/DTD/svg11.dtd"><svg t="1559183751986" class="icon" style="" viewBox="0 0 1024 1024" version="1.1" xmlns="http://www.w3.org/2000/svg" p-id="1776" xmlns:xlink="http://www.w3.org/1999/xlink" width="200" height="200"><defs><style type="text/css"></style></defs><path d="M924.549 337.707c-22.553-53.321-54.833-101.202-95.943-142.312-41.11-41.11-88.991-73.39-142.313-95.943-55.221-23.357-113.861-35.2-174.293-35.2S392.928 76.095 337.707 99.451c-53.321 22.553-101.202 54.833-142.312 95.943-41.11 41.11-73.39 88.991-95.943 142.312-23.357 55.222-35.2 113.862-35.2 174.294s11.843 119.072 35.199 174.293c22.553 53.321 54.833 101.202 95.943 142.313 41.11 41.11 88.991 73.391 142.312 95.943 55.221 23.356 113.862 35.199 174.293 35.199s119.072-11.843 174.293-35.199c53.321-22.553 101.202-54.833 142.313-95.943s73.391-88.991 95.943-142.313c23.356-55.221 35.199-113.861 35.199-174.293s-11.842-119.072-35.198-174.293zM512 896.252c-211.877 0-384.252-172.375-384.252-384.252S300.123 127.748 512 127.748 896.252 300.123 896.252 512 723.877 896.252 512 896.252z" p-id="1777" fill="#e6e6e6"></path><path d="M693.02 330.98c-12.497-12.497-31.492-13.763-42.427-2.828L512 466.745 373.407 328.152c-10.935-10.935-29.93-9.668-42.427 2.828s-13.763 31.492-2.828 42.427L466.745 512 328.152 650.593c-10.935 10.935-9.668 29.93 2.828 42.427 12.497 12.496 31.492 13.763 42.427 2.828L512 557.255l138.593 138.593c10.935 10.935 29.93 9.668 42.427-2.828 12.496-12.497 13.763-31.492 2.828-42.427L557.255 512l138.593-138.593c10.934-10.934 9.668-29.93-2.828-42.427z" p-id="1778" fill="#e6e6e6"></path></svg>