<?xml version="1.0" standalone="no"?><!DOCTYPE svg PUBLIC "-//W3C//DTD SVG 1.1//EN" "http://www.w3.org/Graphics/SVG/1.1/DTD/svg11.dtd"><svg t="1559663667671" class="icon" style="" viewBox="0 0 1024 1024" version="1.1" xmlns="http://www.w3.org/2000/svg" p-id="1668" xmlns:xlink="http://www.w3.org/1999/xlink" width="200" height="200"><defs><style type="text/css"></style></defs><path d="M127.862109 430.098665l0 96.489588c0 6.520507 1.542122 11.08036 4.576225 13.678534 1.194198 1.27197 2.8847 2.438539 5.024433 3.393283 2.13871 0.954745 4.725628 1.803066 7.809873 2.438539 7.909134 1.325182 15.519462 5.885034 22.832008 13.678534 6.714935 7.7935 10.097986 18.502399 10.097986 32.127721 0 4.559852-0.298805 8.748245-0.945535 12.670577-0.596588 3.923356-1.790786 7.475252-3.631714 10.762111-2.437515 6.468318-5.819542 11.663644-10.097986 15.587l-2.736321 1.961678c-0.596588 1.325182-1.542122 2.279926-2.736321 2.916423-1.243317 0.636496-2.288113 1.325182-3.183506 1.961678-0.945535 0.689708-1.691525 1.325182-2.288113 1.961678-1.243317 0.689708-2.437515 1.166569-3.680832 1.484817-1.194198 0.318248-2.237971 0.636496-3.183506 0.954745-0.895393 0.318248-1.691525 0.530073-2.288113 0.530073-1.840928 0-3.332908 0.318248-4.576225 0.954745-1.194198 0.636496-2.237971 1.113357-3.183506 1.484817-0.895393 0.318248-1.840928 0.795109-2.736321 1.431605-0.895393 0.636496-1.39272 1.64343-1.39272 2.915399-2.437515 3.28686-3.631714 8.16496-3.631714 14.632255l-0.031722 112.134917c-0.00921 33.936927 27.5341 61.440327 61.520145 61.440327l4.321422 0 91.067089 0L284.787138 385.352555 177.084161 385.352555C149.84682 385.352555 127.862109 405.38582 127.862109 430.098665zM368.710526 272.269034 233.444796 272.269034c-20.015869 0-36.141128 16.152888-36.141128 36.077683l0 36.077683 171.407881 0L368.71155 272.269034zM894.745171 389.647371c-0.895393-2.916423-1.940189-5.990434-3.183506-9.225105-3.034103-6.520507-7.610328-11.398608-13.728676-14.632255-4.875031-2.598174-7.959276-6.520507-9.152451-11.716856-1.840928-5.195326-2.785439-10.391674-2.785439-15.587 0.64673-2.279926 0.945535-3.393283 0.945535-3.393283l0-2.438539 1.840928-3.923356 0-1.961678c0.596588-1.325182 1.243317-2.279926 1.840928-2.915399 1.194198-2.650363 2.586918-4.877077 4.129041-6.838755 1.49198-1.908466 3.183506-3.551896 5.024433-4.877077 1.790786-1.961678 3.332908-3.923356 4.576225-5.831822 1.194198-1.961678 2.13871-3.923356 2.736321-5.885034 0.596588-1.961678 1.044796-4.081968 1.39272-6.308683 0.298805-2.279926 0.298805-4.559852 0-6.838755-0.347924-2.279926-0.945535-4.241604-1.840928-5.885034-0.945535-1.64343-2.13871-3.233648-3.680832-4.877077-1.49198-1.590218-3.034103-2.756787-4.576225-3.393283-1.49198-0.636496-3.482311-0.954745-5.918803-0.954745L404.03301 272.163633l0 71.148433 399.732054 0c1.790786 0 3.63069 0.211824 5.471618 0.476861 1.840928 0.318248 3.53143 0.848321 5.024433 1.484817 1.542122 0.688685 3.084245 1.484817 4.576225 2.438539 1.542122 0.954745 2.8847 2.067079 4.129041 3.393283 4.875031 4.559852 8.257058 9.755178 10.097986 15.587 0.596588 2.598174 1.044796 5.40715 1.342578 8.323573 0.347924 2.916423 0.497327 5.67321 0.497327 8.270361l0 9.80839c0 2.598174-0.796132 5.354961-2.288113 8.270361-1.542122 2.916423-3.382027 5.513574-5.52176 7.7935-2.13871 2.279926-4.725628 4.081968-7.759731 5.354961-4.27742 3.28686-7.66047 7.475252-10.097986 12.670577-2.437515 5.885034-3.63069 11.716856-3.63069 17.60189 0 5.831822 1.194198 11.663644 3.63069 17.548678 2.437515 5.831822 6.417153 10.391674 11.888771 13.678534 4.875031 2.598174 8.257058 6.15007 10.097986 10.708899 2.437515 5.195326 3.332908 10.073426 2.736321 14.632255-0.596588 5.195326-1.840928 9.755178-3.680832 13.678534-2.437515 3.870144-5.172813 7.157004-8.207939 9.755178-2.437515 1.961678-4.576225 4.081968-6.417153 6.308683-1.790786 2.279926-3.332908 4.718465-4.576225 7.316639l-3.631714 17.548678c0 6.52153 1.194198 12.035104 3.631714 16.593933 2.437515 4.559852 6.118348 8.111748 10.993378 10.708899 3.034103 1.961678 5.471618 5.195326 7.312546 9.755178 1.839905 5.195326 2.735297 10.073426 2.735297 14.632255l0 3.923356-1.840928 3.870144 0 3.923356-1.840928 3.923356c-2.437515 4.50664-5.770424 7.7935-10.047844 9.755178-1.243317 0.636496-2.288113 1.431605-3.183506 2.438539-0.895393 0.954745-1.691525 1.908466-2.288113 2.915399-0.64673 0.954745-1.243317 2.438539-1.840928 4.400217-1.840928 3.870144-2.8847 8.588609-3.183506 14.102183-0.347924 5.566786 0.74599 10.921747 3.183506 16.117073 1.840928 4.559852 4.875031 8.111748 9.152451 10.708899 6.665817 4.559852 11.391445 9.755178 14.176884 15.640212 2.736321 5.831822 2.8847 12.988826 0.447185 21.472034-1.790786 2.598174-3.332908 4.877077-4.576225 6.786567l-4.526083 4.877077c-0.64673 1.325182-0.796132 2.279926-0.497327 2.915399 0.298805 0.689708 1.989307 1.006933 5.02341 1.006933l44.817742 0c5.471618 0 9.451256-1.64343 11.888771-4.877077l1.840928-3.923356c0.596588-1.27197 0.895393-2.916423 0.895393-4.824889l0-3.923356c0-2.598174-0.149403-5.036713-0.447185-7.316639-0.298805-2.226714-1.044796-4.665253-2.288113-7.263427-1.840928-5.195326-3.680832-8.482185-5.52176-9.80839-4.228301-3.181459-7.610328-6.308683-10.047844-9.225105-2.437515-2.968611-4.27742-6.043646-5.52176-9.278317-1.194198-3.233648-1.840928-6.15007-1.840928-8.747221 0-2.650363 0.497327-4.930289 1.39272-6.838755 0.895393-1.961678 1.989307-4.081968 3.183506-6.361895 1.194198-2.279926 2.8847-4.400217 5.02341-6.308683 2.13871-1.961678 4.77577-3.551896 7.809873-4.877077l1.840928-1.961678 1.839905-3.923356 1.840928-1.961678 1.840928-3.870144c1.243317-5.831822 1.840928-11.716856 1.840928-17.548678 0-5.885034-1.49198-11.770068-4.576225-17.60189-2.437515-5.195326-5.770424-8.747221-10.047844-10.708899-1.194198-0.688685-2.238994-1.166569-3.183506-1.484817-0.945535-0.318248-1.840928-0.954745-2.735297-1.961678-0.945535-1.006933-1.691525-1.961678-2.288113-2.915399-0.64673-0.954745-1.243317-2.12029-1.840928-3.393283-1.839905-4.559852-2.785439-9.118682-2.785439-13.678534 0.050142-1.27197 0.198521-2.756787 0.497327-4.400217 0.298805-1.64343 0.596588-3.128247 0.895393-4.400217 0.298805-1.27197 0.74599-2.598174 1.39272-3.923356 2.437515-3.870144 5.770424-6.468318 10.047844-7.7935l-0.050142-0.106424c4.875031-0.636496 8.505721-3.551896 10.993378-8.747221l4.526083-16.593933c0-6.52153-1.194198-12.670577-3.63069-18.502399-2.437515-5.885034-6.417153-10.762111-11.888771-14.632255-5.471618-3.28686-9.451256-7.475252-11.888771-12.670577s-3.680832-10.762111-3.680832-16.593933c0.64673-5.195326 2.13871-10.073426 4.576225-14.632255 0.64673-1.27197 1.39272-2.385327 2.288113-3.393283 0.895393-0.954745 1.940189-1.803066 3.183506-2.438539 1.243317-0.636496 2.437515-1.431605 3.680832-2.438539 1.194198-0.954745 2.736321-1.749854 4.576225-2.385327 5.471618-1.961678 9.750061-5.885034 12.784164-11.716856l2.785439-4.878101c0.596588-1.961678 1.044796-4.081968 1.343601-6.308683 0.347924-2.279926 0.497327-4.400217 0.497327-6.361895C896.087749 395.691017 895.640564 392.615982 894.745171 389.647371zM749.396805 542.81175c0.895393-1.64343 1.940189-3.393283 3.183506-5.354961 3.631714-5.195326 8.804527-8.482185 15.519462-9.755178l0.050142 0.106424c5.471618-1.961678 9.401114-5.195326 11.838629-9.755178 2.437515-4.559852 3.382027-9.43693 2.785439-14.632255 0-4.559852-1.542122-9.43693-4.576225-14.632255-1.243317-2.598174-2.8847-4.877077-5.024433-6.838755-2.13871-1.961678-4.426823-3.28686-6.864338-3.923356l-6.417153-2.915399c-1.839905-1.325182-3.332908-2.598174-4.576225-3.923356-1.194198-1.27197-2.387373-2.863211-3.631714-4.824889-2.437515-4.559852-3.382027-9.43693-2.736321-14.632255 0-2.598174 0.448208-5.036713 1.343601-7.316639 0.945535-2.279926 2.288113-4.400217 4.129041-6.308683 3.034103-4.559852 7.013741-7.687076 11.888771-9.278317 4.875031-1.64343 8.555863-5.036713 10.993378-10.232039 1.840928-4.559852 2.736321-9.43693 2.736321-14.632255-0.596588-4.558829-2.13871-8.747221-4.576225-12.670577-0.596588-1.27197-1.49198-2.438539-2.735297-3.393283-1.243317-1.006933-2.437515-1.64343-3.680832-1.961678-1.194198-0.37146-2.387373-0.530073-3.631714-0.530073L324.494489 385.40679l0 452.389344 435.397345 0c4.875031 0 8.555863-1.961678 10.993378-5.885034 1.194198-1.961678 2.13871-3.923356 2.736321-5.885034 0.64673-1.961678 1.243317-4.241604 1.840928-6.838755l0-3.870144c0-1.325182-0.149403-2.598174-0.448208-3.923356-0.298805-1.27197-0.596588-2.438539-0.895393-3.393283-0.347924-0.954745-0.497327-2.068102-0.497327-3.393283-1.243317-2.598174-2.586918-4.877077-4.129041-6.838755-1.49198-1.908466-3.482311-3.551896-5.919826-4.877077-6.714935-3.870144-11.589966-8.429996-14.624069-13.625322-1.194198-1.961678-2.13871-3.76372-2.785439-5.408173-0.64673-1.590218-1.093914-3.393283-1.342578-5.354961-0.298805-1.961678-0.298805-3.923356 0-5.831822 0.248663-1.961678 0.547469-3.76372 0.895393-5.40715 0.347924-1.590218 0.945535-3.233648 1.840928-4.824889 0.895393-1.64343 1.940189-3.128247 3.183506-4.400217 3.631714-5.195326 8.854669-8.800433 15.519462-10.762111 4.924149-1.961678 8.555863-5.195326 10.993378-9.755178 1.840928-4.559852 2.735297-9.43693 2.735297-14.632255-0.596588-5.831822-2.437515-11.345396-5.471618-16.540721-0.596588-1.961678-1.542122-3.605108-2.785439-4.878101-1.194198-1.325182-2.586918-2.438539-4.129041-3.393283-1.49198-0.953721-3.183506-2.12029-5.024433-3.393283-10.943236-5.885034-16.117073-13.996782-15.519462-24.387433 0.596588-9.755178 7.909134-18.555611 21.936615-26.349111 4.27742-1.961678 7.312546-5.513574 9.152451-10.708899 0.64673-1.325182 1.243317-2.438539 1.839905-3.393283 0.64673-0.954745 0.945535-2.12029 0.945535-3.393283 0-1.325182 0.149403-2.650363 0.448208-3.923356 0.298805-1.27197 0.447185-2.915399 0.447185-4.877077-0.596588-5.195326-2.089591-10.073426-4.526083-14.632255-3.084245-5.195326-7.361665-9.06547-12.833283-11.663644-6.118348-1.961678-10.694573-5.885034-13.728676-11.716856-3.034103-5.195326-4.576225-10.391674-4.576225-15.587 0.596588-1.961678 1.044796-3.923356 1.39272-5.885034C747.854683 546.205033 748.501412 544.455179 749.396805 542.81175zM642.415258 510.860037c-0.64673 1.325182-3.680832 5.885034-9.202593 13.678534-1.790786 2.598174-4.725628 6.680143-8.655124 12.193717-3.979638 5.513574-6.566556 9.225105-7.809873 11.186783-5.471618 7.157004-10.644431 14.632255-15.519462 22.425755l-7.312546 12.670577-0.945535 0c-1.194198 3.28686-0.298805 5.248537 2.785439 5.885034 3.034103 0.636496 5.770424 0.954745 8.207939 0.954745l28.353768 0c3.034103 0 5.471618 1.113357 7.312546 3.393283 1.840928 2.279926 2.736321 4.718465 2.736321 7.316639l0 21.472034c0 2.598174-0.74599 4.347005-2.288113 5.354961-1.49198 0.954745-3.482311 1.431605-5.919826 1.431605l-49.444109 0-6.367011 1.961678c-1.840928 0.689708-2.785439 2.279926-2.785439 4.877077l0.945535 7.7935 0 6.838755c0 1.961678 0.74599 3.28686 2.237971 3.923356 1.542122 0.636496 3.53143 0.636496 5.968945 0l48.449455 0c5.52176 0 8.257058 2.598174 8.257058 7.7935l0 20.464077c0 5.831822-3.979638 8.747221-11.888771 8.747221l-23.826662 0c-2.437515 0.636496-4.875031 1.006933-7.312546 1.006933l-13.728676 0c-2.437515 0-4.278443 0.795109-5.471618 2.385327-1.243317 1.64343-1.840928 3.76372-1.840928 6.361895l0 36.051077c-0.64673 2.598174-2.785439 4.241604-6.417153 4.877077l-26.51284 0c-7.312546 0-10.993378-3.28686-10.993378-9.755178l0-15.640212c0.596588-7.7935 0.596588-13.307074 0-16.540721l-0.895393-5.885034c-0.64673 0-1.243317-0.158612-1.840928-0.476861-0.64673-0.318248-1.840928-0.476861-3.680832-0.476861l-49.39499 0c-3.680832-0.053212-6.417153-1.006933-8.257058-2.968611-1.790786-1.908466-2.736321-4.824889-2.736321-8.747221l-0.895393-6.838755 0-8.748245c0.596588-1.325182 1.044796-2.809999 1.39272-4.400217 0.298805-1.64343 0.74599-2.756787 1.343601-3.393283 1.243317-2.598174 3.382027-3.605108 6.417153-2.968611l55.81112 0c1.194198 0 1.840928-1.590218 1.840928-4.824889l0-17.600867c0-2.598174-3.382027-3.870144-10.097986-3.870144l-48.449455 0c-2.437515 0-4.27742-0.318248-5.52176-1.006933-1.194198-0.636496-2.13871-2.226714-2.736321-4.824889l0-10.762111c0-4.558829-0.298805-8.111748-0.895393-10.708899-1.243317-3.923356-0.497327-6.998391 2.288113-9.278317 2.735297-2.279926 6.565533-3.393283 11.440563-3.393283 1.194198 0 2.586918 0.158612 4.129041 0.476861 1.49198 0.37146 3.183506 0.530073 5.024433 0.530073 1.840928 0 3.680832-0.318248 5.471618-0.954745l21.985734 0c1.243317 0 2.13871-0.37146 2.736321-1.006933s0.596588-1.590218 0-2.915399c-1.243317-1.325182-4.576225-5.885034-10.047844-13.678534-3.084245-5.195326-8.854669-13.307074-17.409508-24.334221-3.034103-4.559852-6.714935-9.595542-10.943236-15.110139-4.27742-5.513574-8.854669-11.504008-13.728676-18.025539-3.680832-6.520507-2.735297-12.035104 2.735297-16.593933 0.596588-0.636496 1.39272-1.27197 2.288113-1.961678 0.895393-0.636496 1.940189-1.325182 3.183506-1.961678 1.243317-0.636496 2.13871-1.590218 2.735297-2.915399l10.993378-7.7935c5.471618-3.233648 10.644431 0 15.519462 9.755178 1.839905 3.28686 5.222955 7.846712 10.097986 13.678534 3.034103 4.50664 5.621021 8.270361 7.759731 11.186783 2.13871 2.915399 4.129041 6.043646 5.968945 9.278317l14.624069 19.510356c1.790786 2.598174 3.332908 4.665253 4.576225 6.308683 1.194198 1.64343 2.13871 3.075035 2.736321 4.400217l1.840928 1.961678c1.194198 1.325182 2.735297 1.961678 4.576225 1.961678 3.034103 0.636496 5.172813-0.318248 6.417153-2.916423 0-0.636496 2.13871-4.241604 6.417153-10.762111 5.471618-7.7935 10.047844-14.950504 13.679557-21.418822 1.243317-1.325182 2.934842-3.76372 5.073552-7.316639 2.13871-3.605108 3.979638-6.520507 5.471618-8.800433 1.542122-2.226714 2.934842-4.347005 4.129041-6.308683 1.839905-2.598174 4.576225-6.838755 8.257058-12.670577 2.437515-3.870144 4.875031-6.786567 7.312546-8.747221 1.840928-0.689708 4.875031-0.37146 9.152451 0.954745 1.840928 0.689708 3.53143 1.484817 5.024433 2.438539 1.542122 0.954745 2.8847 2.068102 4.129041 3.393283 1.840928 1.27197 3.332908 2.438539 4.576225 3.393283 1.243317 1.006933 2.13871 1.803066 2.735297 2.438539 1.840928 1.961678 3.233648 3.870144 4.129041 5.885034 0.945535 1.961678 1.542122 3.923356 1.840928 5.831822C644.10576 507.944638 643.608433 509.534855 642.415258 510.860037z" p-id="1669" fill="#1296db"></path></svg>